<svg version="1.1" id="Layer_1" xmlns="http://www.w3.org/2000/svg" xmlns:xlink="http://www.w3.org/1999/xlink" x="0px" y="0px"
	 width="100%" viewBox="0 0 432 282" enable-background="new 0 0 432 282" xml:space="preserve">
<path fill="#FEFEFE" opacity="1.000000" stroke="none" 
	d="
M282.000000,283.000000 
	C189.333344,283.000000 97.166672,282.975616 5.000175,283.095734 
	C1.576112,283.100189 0.899731,282.424225 0.904244,278.999939 
	C1.024604,187.666779 1.024603,96.333389 0.904265,5.000226 
	C0.899754,1.576249 1.575969,0.902392 4.999973,0.905078 
	C146.333191,1.015966 287.666504,1.015957 428.999756,0.905117 
	C432.423157,0.902432 433.100311,1.575379 433.095795,4.999948 
	C432.975403,96.333115 432.975372,187.666489 433.095673,278.999664 
	C433.100189,282.423340 432.425781,283.107727 428.999969,283.097687 
	C380.166962,282.954498 331.333405,283.000000 282.000000,283.000000 
z"/>
<path fill="#12110F" opacity="1.000000" stroke="none" 
	d="
M298.786438,14.627902 
	C300.111298,16.142855 301.135834,17.474417 302.436005,18.958553 
	C304.516937,19.566275 304.647888,20.918108 304.486328,22.766235 
	C304.289551,24.185642 304.004303,25.255644 304.112885,26.695030 
	C304.224304,27.945187 304.364532,28.870483 304.483704,30.147293 
	C305.087036,32.444149 304.883362,34.492542 305.323120,36.835480 
	C305.439758,37.195587 305.730804,37.307465 305.818726,37.178734 
	C306.790649,37.880077 307.051056,38.932564 306.942810,40.511559 
	C305.202362,47.169792 303.005676,53.261440 301.273132,59.492931 
	C298.883972,68.086014 298.057678,68.653915 289.108582,67.425362 
	C266.533539,67.414093 244.399673,67.380959 221.795868,67.461266 
	C219.766418,67.578117 218.272034,68.267670 216.215546,67.876793 
	C215.488358,67.605164 215.217484,67.449280 214.698639,66.897308 
	C214.297852,58.397755 214.446854,50.293484 214.514450,42.191593 
	C214.568375,35.729305 214.152405,29.299992 213.892700,22.430529 
	C214.581390,20.407663 215.443085,18.967152 216.825867,17.368801 
	C218.176178,15.978600 219.227432,14.876486 220.536606,13.568985 
	C221.800858,13.057778 222.884415,13.027085 224.148712,12.513535 
	C246.862106,12.532228 269.258545,12.548440 292.091003,12.534058 
	C294.601868,12.878813 296.418610,14.046577 298.786438,14.627902 
z"/>
<path fill="#161412" opacity="1.000000" stroke="none" 
	d="
M312.002380,94.071304 
	C310.602661,94.533997 309.549438,94.969337 308.246521,95.643829 
	C307.288910,96.582199 306.425507,96.885124 304.972046,96.858017 
	C291.577454,98.010010 278.624176,97.320038 265.686432,97.362328 
	C249.749008,97.414421 233.807968,97.687332 217.403809,97.064789 
	C216.652069,96.783005 216.368057,96.628021 215.757751,96.113342 
	C213.871628,90.735802 214.166458,85.688477 215.436676,80.233459 
	C217.861786,78.127686 220.444504,78.625618 222.889221,78.620804 
	C244.159195,78.578926 265.429321,78.613152 286.699310,78.572853 
	C288.656799,78.569138 290.688599,79.024643 292.648254,77.701141 
	C292.164246,75.383774 292.968536,74.027237 294.994873,72.899338 
	C299.034210,69.617813 299.282898,64.818375 300.808472,60.754681 
	C303.256012,54.235146 305.242615,47.512104 307.281952,40.397667 
	C311.604370,35.256477 316.941711,36.401466 322.603851,37.235008 
	C323.462982,37.557629 323.905426,37.729050 324.705200,37.855061 
	C325.630890,37.954987 326.145844,38.204247 326.794006,38.797722 
	C327.434906,39.615768 327.870148,40.230526 328.573334,40.951736 
	C329.736877,41.570679 329.940521,42.415096 329.931824,43.692493 
	C329.832123,44.466808 329.744171,44.904408 329.787720,45.657104 
	C329.960144,46.842873 330.008667,47.714825 329.290253,48.746471 
	C328.851318,49.516232 328.614807,50.030712 328.450256,50.828915 
	C328.298767,53.351154 327.596619,55.438835 326.301331,57.707485 
	C325.818176,58.509373 325.570465,59.017582 325.393707,59.807587 
	C323.804688,66.304588 322.133820,72.516220 319.223755,78.702972 
	C318.614197,79.787308 318.260803,80.575356 317.968567,81.686768 
	C317.770569,83.912315 317.165680,85.714813 316.200562,87.742310 
	C315.648590,88.143127 315.485260,88.381882 315.523163,88.932617 
	C315.399231,91.371452 314.340149,93.016037 312.002380,94.071304 
z"/>
<path fill="#1A1A1A" opacity="1.000000" stroke="none" 
	d="
M91.768555,187.971527 
	C91.760803,183.150223 91.764847,178.821350 91.734451,174.492722 
	C91.728912,173.704742 91.834831,172.769424 90.741669,172.521851 
	C89.932457,172.338577 89.686020,173.039993 89.244385,173.503632 
	C87.441559,175.396271 87.309166,179.651413 84.527809,179.365753 
	C82.219933,179.128708 81.955399,175.087433 80.390968,172.970566 
	C79.994476,172.434052 79.672279,171.860260 78.193161,172.094559 
	C78.193161,180.198517 78.186470,188.431274 78.197891,196.663986 
	C78.200729,198.710815 78.441231,200.775558 75.318573,200.704681 
	C73.166206,200.655807 71.913933,200.205795 71.931145,197.646027 
	C72.015060,185.159500 71.962105,172.672104 71.974388,160.185013 
	C71.975853,158.700363 71.790718,156.999695 73.992119,156.873077 
	C75.979889,156.758743 77.921928,156.549942 79.186096,158.809570 
	C80.948456,161.959702 82.309540,165.384064 85.339836,168.695938 
	C87.146645,165.401596 88.878189,162.511078 90.343719,159.491486 
	C91.610214,156.881973 93.713921,156.412628 96.145500,156.913605 
	C98.805008,157.461533 97.908127,159.778503 97.917076,161.432144 
	C97.980133,173.086334 97.945557,184.741043 97.943817,196.395584 
	C97.943497,198.567856 98.330360,200.724518 94.853905,200.753036 
	C91.354179,200.781738 91.759819,198.628250 91.768410,196.455841 
	C91.778954,193.791946 91.769394,191.127975 91.768555,187.971527 
z"/>
<path fill="#161412" opacity="1.000000" stroke="none" 
	d="
M308.254669,177.998993 
	C308.457489,178.719864 308.593231,179.119812 308.803589,179.828140 
	C309.747589,179.675980 309.778290,183.240204 311.203979,180.310699 
	C311.308197,173.702362 311.323212,167.383270 311.305878,161.064240 
	C311.299683,158.809219 311.166656,156.730484 314.521576,156.795563 
	C317.695801,156.857101 317.338348,158.925079 317.341736,160.894043 
	C317.362488,172.866730 317.389801,184.839615 317.333008,196.812027 
	C317.326050,198.280701 318.087311,200.499054 315.423004,200.599899 
	C313.213623,200.683533 310.872833,201.331268 309.765411,198.085800 
	C307.410095,191.183456 304.673065,184.411118 302.075317,177.592041 
	C301.744598,176.723862 301.310730,175.894943 299.876343,175.232529 
	C299.876343,182.218719 299.886963,189.204941 299.869843,196.191086 
	C299.864716,198.280716 300.474762,200.596436 296.963684,200.708405 
	C293.250763,200.826797 293.584869,198.494385 293.589386,196.106003 
	C293.611450,184.465515 293.588745,172.824936 293.628448,161.184540 
	C293.634888,159.303223 293.008789,157.005905 296.187500,156.803146 
	C298.779907,156.637802 300.589233,157.104309 301.468597,159.999588 
	C302.720978,164.123016 304.395294,168.118271 306.002991,172.531250 
	C307.225494,174.307632 307.630035,176.025986 308.254669,177.998993 
z"/>
<path fill="#1A1A1A" opacity="1.000000" stroke="none" 
	d="
M186.472595,173.124283 
	C186.439468,179.096024 186.593719,184.595566 186.325851,190.074478 
	C186.002808,196.681595 182.048935,200.363892 175.472992,200.665237 
	C164.080704,201.187286 164.078583,201.187271 164.071030,189.691666 
	C164.064789,180.207077 164.172440,170.720581 164.004745,161.238907 
	C163.943314,157.765640 165.118713,156.258698 168.625122,156.788330 
	C169.275925,156.886658 169.954178,156.802887 170.619766,156.803497 
	C183.555710,156.815567 186.482544,159.739883 186.472595,173.124283 
z"/>
<path fill="#1E1E1E" opacity="1.000000" stroke="none" 
	d="
M256.630432,195.672729 
	C256.694672,198.511383 256.998230,200.836227 253.281738,200.743149 
	C249.806183,200.656082 250.293961,198.410080 250.293274,196.280151 
	C250.289474,184.469818 250.365387,172.658783 250.247879,160.849640 
	C250.218643,157.911682 251.022583,156.457169 254.179977,156.765671 
	C255.992416,156.942780 257.841034,156.882538 259.665253,156.781876 
	C265.307312,156.470551 270.074341,157.993256 272.121368,163.729233 
	C274.070435,169.190811 273.943756,174.657852 269.289062,178.900391 
	C267.463013,180.564743 267.323456,181.916687 268.143524,184.065430 
	C269.621826,187.938995 270.842041,191.916977 272.023071,195.895020 
	C272.471771,197.406387 274.542358,199.475357 271.770844,200.466675 
	C269.208649,201.383118 266.928986,200.656250 266.077911,197.435486 
	C264.975464,193.263229 263.666870,189.142517 262.343658,185.032898 
	C261.801666,183.349503 261.422211,181.271225 258.888153,181.534485 
	C256.150421,181.818909 256.670227,184.001801 256.634338,185.737625 
	C256.569000,188.896667 256.625427,192.058212 256.630432,195.672729 
z"/>
<path fill="#232323" opacity="1.000000" stroke="none" 
	d="
M130.931458,201.184311 
	C122.705452,200.142303 119.332451,196.468231 119.266457,188.745117 
	C119.209557,182.085129 119.150414,175.422623 119.268280,168.764343 
	C119.405891,160.990219 123.607918,156.532501 130.659622,156.404846 
	C138.058746,156.270889 142.329849,160.566650 142.521164,168.714874 
	C142.681351,175.537262 142.694534,182.372543 142.468964,189.192062 
	C142.209198,197.044754 139.252350,200.050629 130.931458,201.184311 
z"/>
<path fill="#1E1E1E" opacity="1.000000" stroke="none" 
	d="
M350.686707,156.786255 
	C353.557434,156.889633 353.735504,158.881851 354.128021,160.648361 
	C356.794586,172.648651 359.444611,184.652618 362.091064,196.657364 
	C362.468658,198.370209 363.556824,200.392258 360.427185,200.690231 
	C358.003845,200.920959 356.003387,200.519760 355.895111,197.534882 
	C355.771790,194.134811 354.468933,192.472382 350.687653,192.607956 
	C346.994995,192.740356 343.565186,192.376862 343.524933,197.586899 
	C343.501953,200.562454 341.419220,201.039917 339.007629,200.653976 
	C335.926514,200.160919 337.234680,197.916733 337.571838,196.366348 
	C340.184570,184.352936 343.020874,172.386993 345.515656,160.349899 
	C346.145142,157.312744 347.636047,156.506989 350.686707,156.786255 
z"/>
<path fill="#1E1E1E" opacity="1.000000" stroke="none" 
	d="
M212.533493,156.796188 
	C217.473236,156.799805 221.967575,156.844727 226.460526,156.784943 
	C228.457703,156.758362 229.565994,157.363251 229.625809,159.588577 
	C229.689056,161.941803 228.433487,162.412598 226.493042,162.297226 
	C225.663696,162.247910 224.829163,162.284103 223.996979,162.284607 
	C214.419846,162.290298 214.604263,162.291550 214.548050,171.730026 
	C214.526062,175.422180 215.940399,176.328674 219.227600,176.069397 
	C220.788483,175.946289 222.736038,175.346909 223.833389,177.036591 
	C224.298737,177.753113 224.329544,179.020157 224.065460,179.886978 
	C223.491074,181.772354 221.691223,181.589874 220.283096,181.373688 
	C215.597961,180.654404 213.897049,182.641281 214.637680,187.142853 
	C214.717682,187.629135 214.646194,188.139740 214.651199,188.639023 
	C214.727371,196.218628 214.023346,195.075790 221.431107,195.167755 
	C223.261581,195.190491 225.093964,195.208557 226.923080,195.151764 
	C228.871582,195.091293 229.536804,196.144989 229.630966,197.911011 
	C229.731079,199.788406 228.952728,200.697205 227.041718,200.688828 
	C221.715912,200.665497 216.388870,200.613754 211.064560,200.705109 
	C208.622742,200.746994 208.441940,199.287338 208.444031,197.472076 
	C208.458405,184.989456 208.495468,172.506638 208.428497,160.024399 
	C208.414062,157.333130 209.609314,156.445816 212.533493,156.796188 
z"/>
<path fill="#B2B2B2" opacity="1.000000" stroke="none" 
	d="
M216.775635,17.012135 
	C217.453796,18.494795 216.675705,19.601437 215.816895,20.908424 
	C213.830215,22.054565 213.343658,20.451761 212.275742,19.323204 
	C210.786346,16.713087 208.986176,15.262154 205.803528,15.406366 
	C184.903946,15.584136 164.408188,15.576234 143.917618,15.398911 
	C137.223328,15.340978 132.161636,16.955011 128.922699,23.602215 
	C128.090942,24.318399 127.515404,24.481171 126.463753,24.214409 
	C126.370590,16.170380 130.802658,11.229204 138.714417,11.147809 
	C161.167694,10.916812 183.624969,11.107081 206.080048,10.998613 
	C210.838699,10.975626 213.423096,14.195678 216.775635,17.012135 
z"/>
<path fill="#232323" opacity="1.000000" stroke="none" 
	d="
M287.319336,99.970078 
	C281.217499,99.056297 275.393829,99.610939 269.592590,99.583031 
	C252.132584,99.499039 234.671860,99.561363 216.763596,99.569412 
	C215.339783,98.891945 215.373108,97.999748 216.205688,96.798912 
	C241.064301,96.443443 265.499054,96.548782 289.933716,96.520630 
	C290.920746,96.519493 291.935944,96.383644 293.105469,97.274956 
	C293.524719,98.579727 293.184357,99.261330 291.981079,99.807648 
	C290.303070,100.250198 288.969391,99.779739 287.319336,99.970078 
z"/>
<path fill="#9A9A9A" opacity="1.000000" stroke="none" 
	d="
M216.275269,96.770065 
	C216.108536,97.678871 216.189468,98.305840 216.293091,99.252510 
	C213.920273,101.072952 211.236115,100.851913 208.594070,100.854301 
	C188.372040,100.872604 168.149994,100.885078 147.466568,100.988358 
	C146.470078,101.531891 145.992828,102.054451 145.074799,102.593346 
	C143.320541,103.188660 141.868759,103.197784 140.033264,102.876099 
	C139.429031,102.652710 139.196198,102.530792 138.680817,102.124176 
	C137.936859,101.127625 137.694534,100.349579 137.854294,99.096931 
	C138.257736,98.524445 138.498093,98.354340 139.156891,98.026779 
	C157.180466,97.251823 174.791397,97.759979 192.398895,97.597198 
	C198.546280,97.540359 204.694717,97.691971 211.253036,97.443748 
	C212.184280,97.225983 212.662643,96.991257 213.423538,96.459129 
	C213.980743,96.136726 214.211029,96.022209 214.820007,95.833939 
	C215.361420,95.684296 215.524155,95.608414 215.901688,95.695007 
	C216.251984,96.067734 216.387451,96.277985 216.275269,96.770065 
z"/>
<path fill="#9A9A9A" opacity="1.000000" stroke="none" 
	d="
M291.386047,242.196518 
	C291.423523,234.446533 293.051300,232.901505 299.312744,234.209045 
	C302.902100,234.958603 305.645905,239.240051 303.892487,242.017258 
	C302.034515,244.960007 300.429749,247.712921 301.966919,251.304504 
	C299.630493,251.521408 299.053772,250.024933 298.386749,248.749695 
	C297.785645,247.600327 297.516663,245.862717 295.766815,246.433426 
	C294.124146,246.969162 294.958649,248.705856 294.775635,249.927734 
	C294.702515,250.415985 294.810547,250.929642 294.755402,251.422699 
	C294.618622,252.645584 295.218597,254.557907 293.324463,254.568649 
	C291.277679,254.580261 291.442291,252.625092 291.420746,251.146408 
	C291.379608,248.317749 291.395081,245.488266 291.386047,242.196518 
z"/>
<path fill="#232323" opacity="1.000000" stroke="none" 
	d="
M306.640442,116.631355 
	C306.204285,117.401917 305.810181,117.802643 305.190308,118.393127 
	C304.715851,119.242889 304.246796,119.498718 303.294495,118.977203 
	C302.634064,118.409439 302.236420,118.214691 301.616333,117.990234 
	C298.941345,116.144440 298.205048,113.542854 298.148193,110.301041 
	C297.986084,109.112396 297.733521,108.294357 297.255188,107.237762 
	C294.819977,104.887978 293.474762,102.389450 293.605103,98.848465 
	C295.534943,95.965477 298.192688,97.384705 300.917664,97.160873 
	C301.863983,97.460785 302.259918,97.832214 302.489014,98.771378 
	C302.560638,99.910851 302.658997,100.632103 302.936157,101.675537 
	C303.717285,102.809120 304.512665,103.502930 304.357178,104.776733 
	C303.600189,108.227768 305.084534,111.158470 305.765137,114.627869 
	C306.320221,115.348724 306.557648,115.772453 306.640442,116.631355 
z"/>
<path fill="#B9B9B9" opacity="1.000000" stroke="none" 
	d="
M108.604691,35.609398 
	C111.043510,35.844669 113.087448,35.885250 115.567596,35.880402 
	C117.400673,34.950043 118.843376,34.822872 120.668442,35.889893 
	C126.444168,37.801971 122.880981,32.784607 124.687325,31.257473 
	C125.447433,30.353636 125.915916,29.663332 127.229904,29.635242 
	C128.948822,30.657614 128.717178,32.028534 128.590546,33.337776 
	C128.144897,37.945377 127.726021,42.553448 127.574722,47.558529 
	C127.178177,48.103554 126.967010,48.279411 126.362122,48.574429 
	C123.899712,48.822006 122.958015,47.401390 122.418579,45.803600 
	C120.952873,41.462196 117.843513,40.092701 113.540695,40.339672 
	C111.246620,40.471352 108.894569,40.599621 106.299034,39.527023 
	C105.568214,38.851276 105.354507,38.332039 105.341888,37.315807 
	C105.901283,35.568787 106.895844,35.184910 108.604691,35.609398 
z"/>
<path fill="#919191" opacity="1.000000" stroke="none" 
	d="
M214.700348,95.293320 
	C214.905487,95.926086 214.688995,96.299179 214.199249,96.852242 
	C212.010803,98.488632 209.769623,97.970200 207.656693,97.973831 
	C185.217728,98.012428 162.778641,97.994598 139.896530,98.000595 
	C136.134003,98.639801 132.324417,97.512428 129.380859,100.943596 
	C128.454285,101.227577 127.988693,101.007828 127.665405,100.110489 
	C127.950462,96.425674 125.461151,97.334358 123.348854,97.057579 
	C122.932404,96.302322 123.215874,95.744881 124.267639,95.135338 
	C126.819031,94.251938 128.992264,94.389503 131.144684,94.387909 
	C156.721069,94.368942 182.297470,94.371010 207.873856,94.386749 
	C210.025177,94.388077 212.202515,94.240692 214.700348,95.293320 
z"/>
<path fill="#A9A9A9" opacity="1.000000" stroke="none" 
	d="
M322.550354,236.740479 
	C323.734375,239.074265 321.541168,242.064240 324.938385,243.458023 
	C325.942932,243.870148 325.193115,244.483337 324.632111,244.806976 
	C321.697052,246.500153 323.004272,249.317261 323.328125,251.443527 
	C323.710449,253.954025 326.335724,252.502380 327.955597,252.861099 
	C329.289368,253.156448 331.507782,252.260086 331.560974,254.365173 
	C331.616852,256.577118 329.393311,255.825760 328.059906,255.883820 
	C320.181335,256.226868 319.942047,255.982605 319.996613,248.132660 
	C320.020813,244.653076 320.102661,241.173874 320.343140,237.324738 
	C321.013000,236.573746 321.560852,236.427322 322.550354,236.740479 
z"/>
<path fill="#9A9A9A" opacity="1.000000" stroke="none" 
	d="
M264.540466,250.800293 
	C266.407013,252.185211 268.021271,253.761200 270.133698,252.662857 
	C272.145355,251.616913 272.132385,249.468643 272.244232,247.447617 
	C272.471741,243.336853 271.591675,239.093231 273.775543,235.120422 
	C274.871796,240.898438 275.888855,246.837051 274.135681,252.392059 
	C272.786377,256.667419 265.412109,257.772125 262.978699,251.363190 
	C263.355011,250.653976 263.778656,250.510529 264.540466,250.800293 
z"/>
<path fill="#A9A9A9" opacity="1.000000" stroke="none" 
	d="
M161.241516,246.706146 
	C160.953674,248.809662 160.908051,250.618195 160.849289,252.426285 
	C160.816406,253.438400 160.729141,254.601562 159.407944,254.533447 
	C158.143585,254.468262 158.054443,253.301514 158.054932,252.292297 
	C158.057373,247.191238 157.884415,242.079880 158.156113,236.992584 
	C158.353622,233.295074 162.744522,232.785431 166.607330,236.376678 
	C163.455399,237.588287 162.105255,239.462143 162.358017,242.606964 
	C162.463058,243.913712 162.267914,245.258453 161.241516,246.706146 
z"/>
<path fill="#A9A9A9" opacity="1.000000" stroke="none" 
	d="
M194.578308,248.013184 
	C196.776352,244.563034 195.412262,240.889420 195.858139,237.358002 
	C195.994644,236.276840 195.666016,234.673203 197.304642,234.736603 
	C198.687164,234.790131 198.881256,236.212936 198.883316,237.414139 
	C198.890945,241.871704 198.939301,246.330688 198.837830,250.786087 
	C198.806824,252.147293 199.578445,254.142319 197.665070,254.659042 
	C195.436493,255.260895 195.280167,252.893661 194.418198,251.633759 
	C194.150543,251.242523 194.095551,250.705826 193.932083,249.887802 
	C193.504425,248.969131 193.574814,248.467117 194.578308,248.013184 
z"/>
<path fill="#919191" opacity="1.000000" stroke="none" 
	d="
M239.645142,249.788208 
	C239.649872,247.320190 239.526855,245.310974 239.683350,243.323776 
	C239.989014,239.442612 239.966934,235.876160 234.411896,235.313889 
	C238.464844,233.906860 242.170868,233.887924 246.236618,235.299850 
	C241.369675,236.224884 241.856964,239.612915 241.804581,242.929413 
	C241.747940,246.516754 242.445221,250.172150 241.313034,253.884293 
	C238.966782,253.288666 239.927277,251.498718 239.645142,249.788208 
z"/>
<path fill="#B9B9B9" opacity="1.000000" stroke="none" 
	d="
M119.158188,94.326614 
	C112.728775,91.237511 112.632347,84.491173 110.195419,79.073944 
	C109.597885,77.745628 109.449875,76.215096 109.043350,74.390259 
	C109.449593,73.363892 109.876831,72.687820 111.137115,72.585068 
	C113.336098,73.652458 113.504982,75.622818 114.078766,77.287346 
	C115.851822,82.431015 117.830284,87.492760 119.811020,92.933762 
	C119.663002,93.573456 119.559654,93.818008 119.158188,94.326614 
z"/>
<path fill="#A9A9A9" opacity="1.000000" stroke="none" 
	d="
M218.874573,247.869843 
	C218.333420,250.429947 220.105057,254.350143 217.523102,254.321243 
	C214.259598,254.284760 216.125122,250.386169 215.914566,248.234711 
	C215.577591,244.791412 215.801102,241.291214 215.829483,237.815399 
	C215.838821,236.671524 215.797440,235.186218 217.397263,235.262161 
	C218.932480,235.335022 218.839996,236.813095 218.850235,237.959702 
	C218.878326,241.104507 218.868744,244.249649 218.874573,247.869843 
z"/>
<path fill="#F9F9F9" opacity="1.000000" stroke="none" 
	d="
M322.926727,37.061375 
	C319.643372,37.530357 316.259125,37.585491 312.891937,37.854710 
	C311.100708,37.997925 309.498901,38.811977 308.129578,40.588287 
	C307.594635,41.301407 307.161865,41.473038 306.325256,41.198242 
	C305.905090,39.938103 305.798920,38.879292 305.799713,37.435242 
	C309.359741,37.597355 311.225464,33.477764 314.834625,34.133820 
	C317.650848,34.645741 320.694977,34.214668 322.926727,37.061375 
z"/>
<path fill="#EFEFEF" opacity="1.000000" stroke="none" 
	d="
M161.345337,247.001648 
	C160.945663,244.889725 161.012329,242.765396 160.799850,240.669357 
	C160.417099,236.893692 161.930832,235.522781 166.038727,236.704895 
	C166.485458,236.861084 166.500687,236.930344 166.490814,236.948029 
	C169.513824,238.217453 168.941986,240.428925 167.789429,242.560196 
	C166.945801,244.120209 165.798950,245.533615 164.100647,246.923370 
	C163.046722,247.057846 162.366302,247.029907 161.345337,247.001648 
z"/>
<path fill="#A9A9A9" opacity="1.000000" stroke="none" 
	d="
M189.874252,239.968842 
	C190.244904,240.327316 190.198883,240.458618 190.130676,240.444931 
	C190.234024,240.709625 190.405594,240.988022 190.276703,241.654160 
	C188.055161,245.223648 189.439301,248.723587 189.023254,252.051498 
	C188.882431,253.178070 189.076767,254.665710 187.505081,254.647446 
	C185.965683,254.629578 186.008057,253.164993 186.016891,252.019333 
	C186.045990,248.241196 186.116119,244.463394 186.361969,240.320618 
	C187.486908,239.414185 188.459229,239.204620 189.874252,239.968842 
z"/>
<path fill="#A9A9A9" opacity="1.000000" stroke="none" 
	d="
M105.692825,36.799541 
	C105.999840,37.460068 105.997665,37.885693 105.990509,38.630531 
	C104.133797,42.981060 103.511047,47.214226 103.757706,51.977394 
	C103.309761,52.811424 102.888786,53.121479 101.962021,53.140556 
	C98.398804,50.465038 98.167290,47.254463 99.679504,43.349323 
	C100.315529,40.618057 101.994888,39.153946 103.870941,37.426262 
	C104.381248,36.692539 104.822960,36.495377 105.692825,36.799541 
z"/>
<path fill="#919191" opacity="1.000000" stroke="none" 
	d="
M132.088226,254.162354 
	C130.273239,254.060104 129.086426,252.909363 129.039719,251.414307 
	C128.874100,246.113602 128.975113,240.804581 129.558563,235.472549 
	C132.300003,240.724106 129.573364,246.691132 132.036957,252.331451 
	C132.207367,253.062195 132.288696,253.396286 132.088226,254.162354 
z"/>
<path fill="#F9F9F9" opacity="1.000000" stroke="none" 
	d="
M319.303467,78.954163 
	C320.939636,72.857353 322.911652,66.715446 325.174164,60.331463 
	C325.769409,64.105965 324.040100,67.683647 323.169952,71.458878 
	C322.513916,74.304993 323.474945,77.648262 319.303467,78.954163 
z"/>
<path fill="#FCFCFC" opacity="1.000000" stroke="none" 
	d="
M99.552902,43.010468 
	C99.994125,46.203957 99.976898,49.424965 101.840591,52.664001 
	C102.088295,53.196781 102.196121,53.380741 102.073547,53.786541 
	C95.189751,50.684891 94.240372,46.775547 99.552902,43.010468 
z"/>
<path fill="#F9F9F9" opacity="1.000000" stroke="none" 
	d="
M293.018921,99.355438 
	C294.602875,101.587677 295.829132,103.922104 297.042419,106.627861 
	C295.224548,106.655579 293.419678,106.311958 291.213806,105.941238 
	C289.594330,104.100197 288.850342,102.194038 290.008789,99.800583 
	C291.124969,99.562782 291.893097,99.510201 293.018921,99.355438 
z"/>
<path fill="#828180" opacity="1.000000" stroke="none" 
	d="
M102.132721,246.211914 
	C101.712883,244.840164 101.586433,243.684814 101.594299,242.530380 
	C101.656754,233.361313 102.382263,232.840286 112.123306,234.942566 
	C111.899147,236.752869 110.428291,236.131470 109.485443,236.183823 
	C103.098785,236.538528 103.097168,236.509399 103.713333,243.190552 
	C104.553131,244.053009 104.649414,244.712692 104.241592,245.751205 
	C104.026978,246.038956 104.007713,245.995773 104.024429,246.013611 
	C103.582962,246.396072 103.065346,246.528473 102.132721,246.211914 
z"/>
<path fill="#B9B9B9" opacity="1.000000" stroke="none" 
	d="
M136.279663,105.656494 
	C134.375168,109.350883 132.708511,112.686363 130.729034,116.170662 
	C130.163864,116.194801 129.911484,116.070114 129.447968,115.579117 
	C129.417709,109.837433 130.336731,104.798439 135.786560,101.864822 
	C136.946808,103.074165 137.003265,104.155617 136.279663,105.656494 
z"/>
<path fill="#B9B9B9" opacity="1.000000" stroke="none" 
	d="
M102.065674,54.320942 
	C101.869621,53.842922 101.896103,53.677464 101.951538,53.262413 
	C102.338623,52.724537 102.696770,52.436249 103.237778,51.851097 
	C108.016800,53.776939 107.740860,58.321274 108.384918,62.709618 
	C107.743156,63.398476 107.230438,63.520836 106.327522,63.223743 
	C102.729507,61.107460 103.884727,57.262840 102.065674,54.320942 
z"/>
<path fill="#9A9A9A" opacity="1.000000" stroke="none" 
	d="
M163.810699,247.066177 
	C163.902054,245.538574 164.455917,244.126389 165.748413,243.232986 
	C168.013977,241.667007 168.015381,239.782898 166.639786,237.292618 
	C166.480957,236.965714 166.466507,236.628235 166.613281,236.544678 
	C167.136444,236.675217 167.460114,236.602219 167.853119,236.015106 
	C171.838623,238.554657 171.140762,241.537979 167.993713,244.747269 
	C166.595764,245.667984 166.537643,247.687729 164.323517,247.195923 
	C164.047943,246.970200 163.894241,247.046600 163.810699,247.066177 
z"/>
<path fill="#A9A9A9" opacity="1.000000" stroke="none" 
	d="
M164.075806,247.331360 
	C165.580399,247.150681 165.914444,245.444305 167.377319,244.967865 
	C166.379181,247.813766 168.786011,249.851974 169.470535,252.298767 
	C169.691467,253.088470 170.298279,253.945511 169.359344,254.495636 
	C168.265976,255.136246 167.544800,254.448502 167.042160,253.439545 
	C166.082764,251.513855 165.085312,249.607117 164.075806,247.331360 
z"/>
<path fill="#828180" opacity="1.000000" stroke="none" 
	d="
M264.809204,250.566010 
	C264.408051,251.025497 264.006073,251.019958 263.302063,251.007202 
	C262.951324,246.307846 262.902618,241.615707 262.927582,236.462280 
	C263.187683,235.899719 263.374146,235.798431 263.873627,235.754822 
	C265.390472,240.531952 264.521851,245.341583 264.809204,250.566010 
z"/>
<path fill="#B2B2B2" opacity="1.000000" stroke="none" 
	d="
M127.332726,99.860565 
	C127.919235,100.013664 128.156174,100.327950 128.643494,100.795181 
	C131.155243,104.105797 129.552582,106.992790 127.916946,110.164261 
	C127.003754,110.625511 126.432602,110.650795 125.483894,110.271828 
	C125.957855,106.742935 125.350685,103.173447 127.332726,99.860565 
z"/>
<path fill="#9A9A9A" opacity="1.000000" stroke="none" 
	d="
M101.551262,246.312378 
	C102.280899,245.989212 102.784691,245.983353 103.664818,246.004456 
	C103.937027,248.320755 103.855186,250.611420 103.717361,252.898712 
	C103.665237,253.763748 103.359161,254.532776 102.263428,254.417084 
	C101.453217,254.331558 101.180748,253.656311 101.180054,253.006104 
	C101.177780,250.880692 101.269714,248.755157 101.551262,246.312378 
z"/>
<path fill="#9A9A9A" opacity="1.000000" stroke="none" 
	d="
M125.016235,110.387451 
	C125.503769,110.041367 125.893547,110.040985 126.575615,110.022186 
	C127.872910,110.624191 127.658485,111.600204 127.535316,112.499413 
	C127.347878,113.867790 127.743187,114.623215 129.575394,114.439194 
	C129.956772,114.780800 130.023300,115.094978 130.253021,115.864319 
	C129.909409,119.887421 127.090195,119.096443 125.104118,118.682411 
	C122.561020,118.152275 124.348404,115.992874 124.316093,114.583099 
	C124.286812,113.305061 124.700249,112.016876 125.016235,110.387451 
z"/>
<path fill="#F9F9F9" opacity="1.000000" stroke="none" 
	d="
M311.846588,94.495224 
	C312.776703,92.564781 313.897522,91.030891 315.302368,89.323547 
	C315.716797,91.520058 316.797363,93.457863 319.237457,95.370049 
	C316.190460,96.020866 314.056213,96.679535 311.846588,94.495224 
z"/>
<path fill="#B2B2B2" opacity="1.000000" stroke="none" 
	d="
M105.945602,63.406677 
	C106.390465,63.005882 106.795921,63.007648 107.505371,63.014072 
	C110.885910,65.437035 110.838387,69.052986 111.138138,72.721191 
	C110.401817,73.279999 109.944267,73.546555 109.239113,73.908051 
	C107.826958,70.646263 106.108101,67.457314 105.945602,63.406677 
z"/>
<path fill="#9A9A9A" opacity="1.000000" stroke="none" 
	d="
M132.005341,254.851303 
	C131.859573,254.283432 131.912704,253.972519 132.045929,253.194855 
	C134.395660,253.184326 136.566696,253.294769 138.366379,250.847137 
	C139.134918,250.775818 139.454483,251.051483 139.825989,251.769257 
	C138.500198,255.770767 135.836121,256.670959 132.005341,254.851303 
z"/>
<path fill="#F9F9F9" opacity="1.000000" stroke="none" 
	d="
M297.868530,109.994064 
	C299.944244,112.072716 300.679230,114.641090 301.412384,117.581329 
	C296.669861,116.196396 295.359955,113.538994 297.868530,109.994064 
z"/>
<path fill="#919191" opacity="1.000000" stroke="none" 
	d="
M290.105499,99.409035 
	C290.560699,101.475517 290.764557,103.335670 290.890625,105.554977 
	C287.417786,105.772270 287.297363,103.129250 286.927429,100.361633 
	C287.458466,97.943741 288.846924,99.263351 290.105499,99.409035 
z"/>
<path fill="#828180" opacity="1.000000" stroke="none" 
	d="
M323.220215,236.679764 
	C322.396729,236.967606 321.864258,236.970047 320.929810,236.963730 
	C323.182678,231.694931 327.267853,235.319901 330.639801,234.514679 
	C330.706696,234.973343 330.773590,235.432007 330.840485,235.890671 
	C328.397369,236.058563 325.954285,236.226456 323.220215,236.679764 
z"/>
<path fill="#919191" opacity="1.000000" stroke="none" 
	d="
M189.996689,242.398499 
	C189.998138,241.773926 190.020004,241.505951 190.052155,240.834625 
	C192.965408,241.808014 193.482758,244.885712 194.986557,247.639236 
	C194.713974,248.294357 194.404846,248.596359 194.008331,249.219131 
	C192.280685,247.473343 190.681824,245.382965 189.996689,242.398499 
z"/>
<path fill="#F9F9F9" opacity="1.000000" stroke="none" 
	d="
M144.702988,102.205391 
	C145.405899,101.647438 145.905060,101.332710 146.704697,101.047668 
	C146.896652,103.941208 147.144653,107.053253 142.484314,107.025177 
	C141.364883,106.201263 141.806091,105.376785 142.281708,104.268600 
	C142.956497,103.238449 143.852600,103.009880 144.702988,102.205391 
z"/>
<path fill="#FCFCFC" opacity="1.000000" stroke="none" 
	d="
M106.200348,36.761055 
	C105.570236,37.062950 105.138466,37.091465 104.382629,37.138123 
	C104.214767,35.688614 103.295555,33.726055 105.543449,33.159576 
	C107.118813,32.762581 108.350250,33.457497 108.942024,35.453644 
	C108.132607,36.031952 107.265648,36.259808 106.200348,36.761055 
z"/>
<path fill="#828180" opacity="1.000000" stroke="none" 
	d="
M140.178406,251.571976 
	C139.707825,251.755707 139.368973,251.484863 138.850388,250.936340 
	C138.710114,246.075211 138.749557,241.491730 138.884399,236.450714 
	C139.168961,235.897873 139.358139,235.802567 139.843781,235.821472 
	C140.196899,240.996277 140.253510,246.056839 140.178406,251.571976 
z"/>
<path fill="#CDCDCD" opacity="1.000000" stroke="none" 
	d="
M118.954330,94.870758 
	C118.894897,94.304138 118.929733,94.017601 119.031288,93.303253 
	C121.400719,91.922386 123.156593,92.528275 124.282120,95.105698 
	C123.886986,95.799019 123.565979,96.106506 123.106453,96.717850 
	C121.413162,96.918312 120.099022,96.310806 118.954330,94.870758 
z"/>
<path fill="#B2B2B2" opacity="1.000000" stroke="none" 
	d="
M299.035736,14.440216 
	C296.552185,15.947309 295.151215,13.191005 292.759766,12.769881 
	C295.089447,11.334800 297.063171,12.594232 299.035736,14.440216 
z"/>
<path fill="#828180" opacity="1.000000" stroke="none" 
	d="
M310.923279,180.198074 
	C312.194244,181.562195 312.149323,183.078354 311.067261,184.919266 
	C309.480621,183.920639 309.226013,182.312759 308.807037,180.498459 
	C309.432312,180.215912 309.986420,180.295303 310.923279,180.198074 
z"/>
<path fill="#535150" opacity="1.000000" stroke="none" 
	d="
M305.581848,36.815506 
	C303.119080,35.648136 304.327393,33.309719 304.289337,30.894156 
	C305.964386,32.247955 305.444092,34.426685 305.581848,36.815506 
z"/>
<path fill="#F9F9F9" opacity="1.000000" stroke="none" 
	d="
M136.372879,106.011993 
	C136.066910,104.949631 136.092026,103.883858 136.245422,102.199341 
	C136.551666,101.500000 136.729614,101.419418 137.197601,101.295456 
	C137.882111,101.271759 138.252625,101.374138 138.808273,101.771301 
	C139.021347,101.969666 138.997925,101.997826 139.013458,101.989159 
	C139.369049,102.388367 139.627686,102.842667 139.846375,103.737259 
	C139.839203,104.668365 139.668549,105.162712 139.034058,105.817116 
	C138.029922,106.015862 137.366943,106.012230 136.372879,106.011993 
z"/>
<path fill="#9A9A9A" opacity="1.000000" stroke="none" 
	d="
M138.958649,106.279800 
	C138.746841,105.566589 138.800781,105.113678 138.910934,104.322983 
	C140.139801,103.121078 141.410324,102.968056 143.152679,103.788544 
	C143.154144,104.892868 142.772812,105.670357 142.244904,106.740524 
	C141.140335,106.868835 140.182358,106.704460 138.958649,106.279800 
z"/>
<path fill="#F9F9F9" opacity="1.000000" stroke="none" 
	d="
M326.438599,57.927826 
	C326.040100,55.668491 327.206055,53.676620 328.216064,51.332626 
	C329.247528,53.688721 328.782532,55.962719 326.438599,57.927826 
z"/>
<path fill="#9A9A9A" opacity="1.000000" stroke="none" 
	d="
M104.388763,246.055115 
	C103.993721,245.421021 103.960464,244.803101 103.895378,243.882599 
	C105.292732,243.355988 107.139854,242.844803 107.364082,244.860382 
	C107.545387,246.490128 105.760521,245.895432 104.388763,246.055115 
z"/>
<path fill="#F9F9F9" opacity="1.000000" stroke="none" 
	d="
M316.300446,87.944870 
	C316.453003,86.145622 316.956085,84.292358 317.744446,82.224617 
	C318.939270,84.291367 318.334808,86.217644 316.300446,87.944870 
z"/>
<path fill="#F9F9F9" opacity="1.000000" stroke="none" 
	d="
M302.840942,99.052826 
	C302.147522,99.084518 301.969116,98.867416 301.854950,98.329544 
	C301.573456,96.219139 303.028259,96.254250 304.620361,95.982742 
	C305.750366,95.891205 306.501495,95.825127 307.624695,95.821022 
	C307.730621,98.982880 304.573364,97.529198 302.840942,99.052826 
z"/>
<path fill="#FCFCFC" opacity="1.000000" stroke="none" 
	d="
M120.947021,35.828125 
	C119.608696,36.120174 118.219627,36.033363 116.417175,35.890762 
	C117.422127,33.010979 119.094559,33.410156 120.947021,35.828125 
z"/>
<path fill="#828180" opacity="1.000000" stroke="none" 
	d="
M190.208740,239.939438 
	C189.326004,240.212891 188.407120,240.098450 187.020844,239.969910 
	C186.596710,238.873322 186.639969,237.790863 186.780060,236.313507 
	C187.318161,235.584503 187.811844,235.462418 188.686523,235.771973 
	C189.400909,237.178268 189.786743,238.364899 190.208740,239.939438 
z"/>
<path fill="#828180" opacity="1.000000" stroke="none" 
	d="
M308.441956,177.982651 
	C306.437653,177.286667 307.034393,175.034805 306.056458,173.240112 
	C308.085114,173.884277 307.923035,175.971054 308.441956,177.982651 
z"/>
<path fill="#B9B9B9" opacity="1.000000" stroke="none" 
	d="
M125.800278,24.225317 
	C126.445648,24.000774 126.840805,23.995108 127.532585,23.986450 
	C128.866776,24.863342 128.797760,25.868023 127.831619,27.188583 
	C126.963074,27.625355 126.419762,27.643055 125.530807,27.256529 
	C125.310394,26.161276 125.430229,25.302734 125.800278,24.225317 
z"/>
<path fill="#F9F9F9" opacity="1.000000" stroke="none" 
	d="
M303.817749,24.286453 
	C303.316467,22.661657 303.009949,21.249989 302.707520,19.474726 
	C307.913910,18.712332 304.463531,22.113197 304.680115,24.258846 
	C304.381500,24.609217 304.196991,24.554399 303.817749,24.286453 
z"/>
<path fill="#9A9A9A" opacity="1.000000" stroke="none" 
	d="
M302.010254,254.431610 
	C301.007446,253.505188 300.682892,252.537994 301.591064,251.805527 
	C302.108002,251.388626 302.757385,251.899582 303.114441,252.535324 
	C303.686188,253.553284 303.822021,254.356339 302.010254,254.431610 
z"/>
<path fill="#B2B2B2" opacity="1.000000" stroke="none" 
	d="
M125.088104,27.407942 
	C125.654266,27.022552 126.117981,27.025290 126.930588,27.037628 
	C127.767479,27.779263 127.795395,28.554419 127.246735,29.680279 
	C126.490799,30.264368 125.984413,30.528404 125.208664,30.892124 
	C124.954750,29.926559 124.970200,28.861315 125.088104,27.407942 
z"/>
<path fill="#F9F9F9" opacity="1.000000" stroke="none" 
	d="
M330.192596,43.831200 
	C329.556732,43.255672 329.193451,42.482140 328.835724,41.383400 
	C330.596802,41.150810 331.418671,41.832211 330.192596,43.831200 
z"/>
<path fill="#B2B2B2" opacity="1.000000" stroke="none" 
	d="
M224.156891,12.312600 
	C223.697784,13.568122 222.471909,13.284648 221.115234,13.459280 
	C221.412399,11.971763 222.571594,11.897673 224.156891,12.312600 
z"/>
<path fill="#F9F9F9" opacity="1.000000" stroke="none" 
	d="
M329.411285,48.953873 
	C329.224823,48.158169 329.361816,47.314594 329.708984,46.221611 
	C331.251709,47.037758 331.424835,48.030441 329.411285,48.953873 
z"/>
<path fill="#535150" opacity="1.000000" stroke="none" 
	d="
M303.391724,24.264912 
	C303.798126,24.143042 303.973297,24.212755 304.357239,24.473251 
	C304.565979,24.664032 304.494629,24.865545 304.563416,24.947357 
	C305.255249,25.232740 305.508026,25.656935 305.114960,26.622669 
	C304.839417,26.943546 304.468750,27.051138 304.276428,27.035511 
	C303.009125,26.441813 302.938965,25.501694 303.391724,24.264912 
z"/>
<path fill="#F9F9F9" opacity="1.000000" stroke="none" 
	d="
M305.163147,26.922657 
	C304.714844,26.521841 304.590302,26.100136 304.548950,25.353800 
	C305.373230,25.158381 306.400452,24.888052 306.449768,26.061401 
	C306.460968,26.327551 305.824982,26.620922 305.163147,26.922657 
z"/>
<path fill="#F9F9F9" opacity="1.000000" stroke="none" 
	d="
M304.296082,104.642151 
	C303.036926,104.500458 303.134735,103.523727 303.042419,102.332581 
	C304.400665,102.263878 305.059448,102.923164 304.296082,104.642151 
z"/>
<path fill="#F9F9F9" opacity="1.000000" stroke="none" 
	d="
M326.979675,38.715439 
	C326.441956,38.788044 325.884277,38.575073 325.194519,38.085876 
	C326.091736,36.802494 326.628479,37.301865 326.979675,38.715439 
z"/>
<path fill="#A9A9A9" opacity="1.000000" stroke="none" 
	d="
M188.978378,235.711411 
	C188.540497,235.967178 188.065918,235.942734 187.234131,235.918457 
	C187.246506,234.406265 187.846558,233.870148 188.978378,235.711411 
z"/>
<path fill="#F9F9F9" opacity="1.000000" stroke="none" 
	d="
M303.046265,118.949341 
	C303.467194,118.502861 303.902618,118.401543 304.651306,118.441559 
	C304.889374,119.296028 305.077942,120.197266 304.123260,120.425507 
	C303.282684,120.626488 303.245331,119.837997 303.046265,118.949341 
z"/>
<path fill="#F9F9F9" opacity="1.000000" stroke="none" 
	d="
M306.853638,116.919006 
	C306.341705,116.587151 306.084991,116.173111 305.889893,115.380119 
	C307.048462,115.164619 308.347687,115.200554 306.853638,116.919006 
z"/>
<path fill="#A9A9A9" opacity="1.000000" stroke="none" 
	d="
M167.674194,235.707367 
	C167.745972,236.025040 167.524017,236.301453 167.031067,236.519501 
	C166.966858,236.196121 167.173660,235.931107 167.674194,235.707367 
z"/>
<path fill="#A9A9A9" opacity="1.000000" stroke="none" 
	d="
M264.068115,235.585968 
	C263.990295,235.851593 263.793945,235.890701 263.299408,235.965408 
	C263.101929,235.468704 263.254089,235.012466 264.068115,235.585968 
z"/>
<path fill="#9A9A9A" opacity="1.000000" stroke="none" 
	d="
M140.054443,235.688004 
	C139.947021,235.947830 139.753754,235.959976 139.270142,235.982635 
	C139.111954,235.455750 139.283951,234.989578 140.054443,235.688004 
z"/>
<path fill="#FEFEFE" opacity="1.000000" stroke="none" 
	d="
M212.411835,17.777607 
	C213.479614,18.983198 214.149841,19.968361 215.176071,21.002806 
	C215.577972,36.062542 215.623901,51.072998 215.619690,66.483002 
	C215.375122,67.051773 215.180695,67.220978 214.607300,67.476685 
	C213.439240,67.584694 212.664398,67.406685 211.470551,67.391991 
	C210.500656,67.386147 209.937851,67.386063 208.929459,67.396179 
	C186.800995,67.419983 165.118134,67.407158 142.996796,67.414963 
	C140.023010,67.244507 137.667969,67.781342 135.145782,69.346985 
	C133.446686,69.663574 132.607895,69.019012 131.876862,67.514725 
	C131.040207,63.451374 128.741379,59.948376 131.013870,55.767056 
	C133.213058,54.853256 134.741043,55.561340 135.792969,56.943073 
	C138.376526,60.336647 141.977249,61.319508 145.915222,61.361519 
	C164.531113,61.560116 183.149078,61.588173 201.763718,61.350201 
	C207.887009,61.271919 209.432129,59.555920 209.415024,53.450901 
	C209.386139,43.150314 209.839447,32.844372 209.118851,22.546318 
	C208.966934,20.375477 208.237900,17.577665 212.411835,17.777607 
z"/>
<path fill="#828180" opacity="1.000000" stroke="none" 
	d="
M219.854614,66.556702 
	C243.077621,66.080856 266.056000,66.035744 289.500122,66.019440 
	C290.375824,66.618172 290.476471,67.238419 289.916809,68.256027 
	C287.900879,69.557449 286.054626,69.574730 284.226196,69.579193 
	C264.754639,69.626717 245.283066,69.621643 225.811493,69.584549 
	C224.312500,69.581696 222.814285,69.520798 220.915924,68.855408 
	C219.868698,68.255356 219.583344,67.701805 219.854614,66.556702 
z"/>
<path fill="#535150" opacity="1.000000" stroke="none" 
	d="
M289.788574,68.027351 
	C289.984924,67.366646 289.992462,66.989853 289.982941,66.330658 
	C290.294098,66.022018 290.622314,65.995575 290.950562,65.969604 
	C292.973175,65.809608 294.993042,68.531471 296.349792,67.277847 
	C298.011414,65.742523 298.794891,63.074791 299.537506,60.761669 
	C301.600067,54.336906 303.444733,47.842178 305.693359,41.186005 
	C306.441498,40.962124 306.871765,40.927334 307.626160,40.905907 
	C305.841064,51.867962 301.368042,62.090462 298.163940,72.702988 
	C297.915283,73.526649 297.194244,74.025978 295.873901,74.109123 
	C295.320709,73.737465 295.165649,73.390350 294.869232,72.795059 
	C294.430908,71.806305 293.884979,71.300949 292.900818,70.819305 
	C291.442963,70.111328 290.064728,69.788971 289.788574,68.027351 
z"/>
<path fill="#B2B2B2" opacity="1.000000" stroke="none" 
	d="
M213.734283,66.708298 
	C214.249908,66.811989 214.514893,66.795273 215.174713,66.830551 
	C215.569550,66.882561 215.850937,66.706497 215.968719,66.823425 
	C216.569870,67.541435 217.158356,68.058975 217.657425,69.118835 
	C218.061447,72.111061 217.362564,74.611923 216.620972,77.470871 
	C216.230362,77.969147 216.028091,78.128006 215.442230,78.303802 
	C211.795227,75.695557 212.578720,70.816734 209.362503,67.768875 
	C209.397614,67.144997 209.463837,66.900208 209.755859,66.349335 
	C210.419434,66.026642 210.857178,66.010040 211.624069,66.010567 
	C212.384369,66.430191 212.934021,66.508965 213.734283,66.708298 
z"/>
<path fill="#535150" opacity="1.000000" stroke="none" 
	d="
M218.004852,69.237579 
	C216.857742,68.958855 216.237839,68.591812 216.049164,67.329536 
	C217.193893,66.698654 218.301285,66.456970 219.753967,66.170624 
	C220.088211,66.536766 220.077164,66.947571 220.034332,67.665344 
	C220.308929,69.469467 219.329117,69.479492 218.004852,69.237579 
z"/>
<path fill="#FCFCFC" opacity="1.000000" stroke="none" 
	d="
M124.654358,95.578270 
	C123.334335,93.577271 121.222694,93.885490 119.432159,92.946411 
	C115.214737,86.937828 114.006683,79.940727 111.139954,73.251419 
	C109.919258,69.928284 108.979141,66.843124 107.924194,63.388351 
	C106.997520,59.185406 105.518417,55.585983 103.686684,51.785568 
	C102.543152,47.229980 100.621986,42.736385 105.694809,39.140102 
	C107.459511,38.927666 108.959435,39.075481 110.403107,38.855000 
	C117.845436,37.718399 123.261627,39.730301 125.212502,47.999649 
	C129.009537,51.085297 128.071884,55.728462 129.766296,59.396145 
	C130.715820,61.451443 130.766113,63.895897 131.927292,66.341751 
	C132.535583,68.076019 132.766495,69.555374 133.768402,71.137138 
	C134.506805,73.640068 134.057465,76.202965 136.593811,77.925781 
	C137.185852,78.168190 137.433792,78.258171 138.086807,78.428970 
	C160.872818,78.705170 183.254242,78.534729 205.635345,78.598312 
	C208.120483,78.605377 210.609787,78.491844 213.550690,78.888290 
	C214.298737,79.145027 214.585281,79.283707 215.192596,79.776100 
	C215.447723,85.047180 215.382095,89.964546 215.257568,95.321045 
	C215.198669,95.760178 215.218475,95.636383 215.170227,95.594681 
	C187.268372,95.632095 159.414810,95.714371 131.561188,95.784111 
	C129.407822,95.789505 127.254219,95.706779 124.654358,95.578270 
z"/>
<path fill="#12110F" opacity="1.000000" stroke="none" 
	d="
M217.511444,69.410492 
	C218.389648,68.852509 219.075699,68.669403 219.882141,68.229309 
	C243.016708,67.907158 266.030884,67.842010 289.511200,67.760147 
	C290.668640,69.272232 292.362000,68.789505 293.736115,69.698524 
	C294.366516,70.463104 294.668823,71.055367 295.366516,71.768913 
	C295.618988,72.474808 295.643890,72.941383 295.566345,73.748940 
	C294.033752,74.441650 292.690155,74.848793 294.000671,76.935745 
	C293.463379,79.661720 291.092529,79.406273 289.293152,79.412117 
	C265.197754,79.490463 241.101898,79.555222 217.006393,79.412102 
	C216.706863,79.410316 216.410156,79.139961 216.072784,78.500244 
	C216.016617,75.200546 215.750824,72.349419 217.511444,69.410492 
z"/>
<path fill="#828180" opacity="1.000000" stroke="none" 
	d="
M304.716614,95.730042 
	C304.072998,96.507355 303.146759,97.057434 302.001709,97.864151 
	C299.135437,98.145760 296.451324,97.310532 293.614197,98.856155 
	C293.376587,99.253250 293.406342,99.169067 293.406006,99.212631 
	C293.012390,95.621948 290.160889,97.093025 288.374542,97.086052 
	C264.570099,96.993118 240.765182,97.030060 216.493988,97.043274 
	C216.027771,96.851921 216.027939,96.651955 216.072296,96.154739 
	C242.241043,95.828018 268.365601,95.807587 294.490082,95.757812 
	C297.804871,95.751495 301.119354,95.591560 304.716614,95.730042 
z"/>
<path fill="#828180" opacity="1.000000" stroke="none" 
	d="
M215.735260,77.994934 
	C217.522446,79.033470 219.228073,78.736473 220.859650,78.737602 
	C242.908340,78.752892 264.957031,78.749939 287.005737,78.726372 
	C289.304291,78.723915 291.651123,78.899933 294.031860,77.425583 
	C295.323395,76.522682 296.335876,76.389000 295.843323,78.029350 
	C294.967773,80.944969 292.398163,80.083389 290.377930,80.087532 
	C265.759583,80.138039 241.141129,80.135101 216.018036,80.137924 
	C215.513367,80.129822 215.280685,80.550507 215.051498,80.478012 
	C214.742477,80.196228 214.662643,79.986938 214.485992,79.455360 
	C214.420715,78.910843 214.452225,78.688614 214.666870,78.183899 
	C215.046326,77.926758 215.242615,77.952110 215.735260,77.994934 
z"/>
<path fill="#EFEFEF" opacity="1.000000" stroke="none" 
	d="
M170.285782,165.498657 
	C170.078552,162.861465 171.173172,162.211807 173.239456,162.177231 
	C175.909531,162.132553 178.175140,162.556244 179.496109,165.201553 
	C180.351517,166.914536 180.270111,168.743149 180.277145,170.556549 
	C180.300323,176.524384 180.356903,182.493668 180.251205,188.459747 
	C180.195374,191.611053 179.363663,194.470200 175.616379,195.097809 
	C172.299759,195.653290 169.959213,195.473068 170.172180,190.809525 
	C170.549927,182.537674 170.281738,174.236298 170.285782,165.498657 
z"/>
<path fill="#D6D6D6" opacity="1.000000" stroke="none" 
	d="
M261.553253,176.584198 
	C257.552856,177.156250 255.790207,175.876785 256.325531,171.985367 
	C256.550476,170.350342 256.238403,168.646606 256.397400,166.995972 
	C256.569000,165.214676 255.355072,162.599701 258.459778,162.226151 
	C261.282562,161.886505 264.132629,161.788574 265.947205,164.808548 
	C268.669525,169.339325 267.058929,174.212631 261.553253,176.584198 
z"/>
<path fill="#F3F3F3" opacity="1.000000" stroke="none" 
	d="
M136.225937,174.074707 
	C136.213013,179.710388 136.221085,184.856995 136.179550,190.003220 
	C136.152893,193.305481 134.552032,195.517593 131.185623,195.628296 
	C127.532349,195.748459 125.774704,193.511963 125.755760,189.950760 
	C125.716019,182.480728 125.681953,175.009964 125.746994,167.540390 
	C125.775047,164.318634 127.255928,161.988022 130.738953,161.931183 
	C134.390762,161.871582 136.114395,164.062042 136.195053,167.609299 
	C136.240356,169.600555 136.217850,171.593384 136.225937,174.074707 
z"/>
<path fill="#D6D6D6" opacity="1.000000" stroke="none" 
	d="
M353.272400,183.532196 
	C353.464081,185.163803 354.722229,186.941986 353.097137,187.441925 
	C351.129547,188.047211 348.805847,188.063660 346.761353,187.675629 
	C345.036133,187.348221 345.720154,185.482956 345.942139,184.277878 
	C346.954224,178.783508 348.068756,173.307999 349.405609,166.507660 
	C351.684326,172.731125 352.229370,177.973648 353.272400,183.532196 
z"/>
<path fill="#FFFFFF" opacity="1.000000" stroke="none" 
	d="
M212.737427,17.668562 
	C210.655457,17.905460 209.815918,18.825138 210.161850,21.039391 
	C212.020782,32.938835 210.635651,44.920601 210.938019,56.861656 
	C211.047607,61.189606 208.275864,62.960140 201.989273,62.982479 
	C187.012604,63.035706 172.034927,63.082977 157.059189,62.954163 
	C151.933624,62.910080 146.807709,63.441364 141.654709,62.470852 
	C138.637268,61.902546 136.387360,60.867073 135.050735,58.108227 
	C134.306488,56.572075 133.107834,55.904228 131.031830,56.085602 
	C129.260895,55.944115 128.846222,54.790386 128.148560,53.462124 
	C127.889549,52.647121 127.732513,52.177948 127.559814,51.321495 
	C127.639999,50.673538 127.720406,50.417976 127.985336,49.799271 
	C130.026535,44.578636 130.336075,39.731335 129.732727,34.455215 
	C128.740707,25.780277 131.238937,23.476366 140.131317,23.579668 
	C144.732040,23.633116 148.785202,23.596296 149.861267,17.744637 
	C150.289383,15.416471 152.381165,15.247030 154.634735,15.314083 
	C170.442566,15.784423 186.257202,15.464799 202.069321,15.512427 
	C203.563507,15.516928 205.087570,15.616663 206.675308,14.279771 
	C209.828079,13.518345 211.205887,15.498020 212.737427,17.668562 
z"/>
<path fill="#FEFEFE" opacity="1.000000" stroke="none" 
	d="
M206.533264,13.949570 
	C206.650543,17.461901 204.027390,17.041946 201.736481,16.984268 
	C185.621399,16.578518 169.480545,17.902760 153.384933,16.277624 
	C149.957916,15.931606 150.596268,19.093643 150.514206,20.439360 
	C150.264160,24.539310 148.192383,25.432152 144.679047,25.024689 
	C143.364578,24.872242 142.017609,25.000046 140.685455,25.000078 
	C131.315109,25.000298 127.778282,30.315914 131.782867,38.965816 
	C132.965424,41.520172 133.291290,43.096184 130.899719,44.878563 
	C128.972763,46.314667 131.044403,49.225780 128.704224,50.888100 
	C127.081535,50.736717 127.032356,49.626804 126.932785,48.323944 
	C125.489647,42.131016 126.800529,36.337982 127.220604,30.266075 
	C127.078125,29.262999 127.159065,28.525671 127.259750,27.417789 
	C127.494911,26.242479 127.710320,25.437723 127.877472,24.308216 
	C130.987808,15.166470 132.768677,13.870912 141.865326,13.872155 
	C163.265717,13.875082 184.666122,13.890979 206.533264,13.949570 
z"/>
<path fill="#EFEFEF" opacity="1.000000" stroke="none" 
	d="
M137.830719,97.599579 
	C162.994019,97.201561 187.997955,97.123756 213.463943,97.039078 
	C213.709000,99.756126 211.580673,98.893517 210.135300,98.893982 
	C186.372192,98.901588 162.609055,98.845909 138.384735,98.696823 
	C137.839478,98.366066 137.755432,98.142921 137.830719,97.599579 
z"/>
<path fill="#F3F3F3" opacity="1.000000" stroke="none" 
	d="
M137.560181,97.203552 
	C137.988022,97.572144 137.980148,97.864754 137.945007,98.373199 
	C137.880112,98.798752 137.836685,99.008301 137.738953,99.821014 
	C137.352890,100.930168 136.822662,101.216888 136.181396,101.816994 
	C135.980453,102.031059 135.986069,102.007904 135.990936,102.017609 
	C132.007263,104.938377 131.683060,109.738823 129.907867,114.133415 
	C128.930420,115.222420 128.336029,117.436020 127.018112,116.527397 
	C124.827278,115.016953 126.609581,112.720589 126.839966,110.378479 
	C128.369629,107.462227 128.638916,104.602509 128.944336,101.356644 
	C129.473541,95.005409 134.033356,97.643478 137.560181,97.203552 
z"/>
<path fill="#B2B2B2" opacity="1.000000" stroke="none" 
	d="
M143.799622,104.025848 
	C142.315002,104.073265 141.094528,104.031158 139.420609,103.987122 
	C138.960861,103.538933 138.954575,103.092659 138.988632,102.313446 
	C140.709518,101.980675 142.390030,101.980865 144.488647,101.971603 
	C144.922379,102.746880 144.796646,103.471230 143.799622,104.025848 
z"/>
<path fill="#B2B2B2" opacity="1.000000" stroke="none" 
	d="
M139.010315,101.644173 
	C138.569550,101.966827 138.117767,101.963989 137.327362,101.951454 
	C136.571548,101.208237 137.021088,100.777580 137.760727,100.140022 
	C137.983627,99.909645 137.897171,99.937897 137.874725,99.897507 
	C138.234604,100.344315 138.616943,100.831505 139.010315,101.644173 
z"/>
<path fill="#F9F9F9" opacity="1.000000" stroke="none" 
	d="
M298.089294,243.255035 
	C294.352692,243.500488 294.366547,241.252350 294.561493,238.981873 
	C294.675201,237.657410 294.870117,236.357895 296.762207,236.276230 
	C298.850464,236.186111 300.459198,236.852264 301.004974,238.890045 
	C301.566040,240.984924 301.376556,242.950455 298.089294,243.255035 
z"/>
<path fill="#B2B2B2" opacity="1.000000" stroke="none" 
	d="
M126.706383,48.012550 
	C127.429436,48.788490 127.758163,49.595448 128.225479,50.702339 
	C128.412415,51.229221 128.460785,51.456173 128.654816,51.999237 
	C128.800507,52.315353 128.609100,52.658829 128.802795,52.625134 
	C129.392960,53.610722 129.789444,54.630001 130.411804,55.880966 
	C130.891418,59.599449 131.951065,62.895397 133.038635,66.578583 
	C132.810715,67.154457 132.567917,67.340012 131.932251,67.289368 
	C128.214005,61.457397 127.176903,55.115067 125.577499,48.532413 
	C125.787529,48.098312 126.049797,48.070938 126.706383,48.012550 
z"/>
<path fill="#9A9A9A" opacity="1.000000" stroke="none" 
	d="
M137.617798,99.850159 
	C137.716888,100.409843 137.450150,100.910042 137.086090,101.675995 
	C136.825439,102.009850 136.662094,102.077950 136.239594,102.088554 
	C135.839096,100.963501 135.990036,100.061829 137.617798,99.850159 
z"/>
<path fill="#9A9A9A" opacity="1.000000" stroke="none" 
	d="
M209.516861,65.991455 
	C209.971649,66.269051 209.961609,66.494850 209.935760,67.059334 
	C208.174606,68.637131 206.149597,68.563881 204.162186,68.578186 
	C183.568100,68.726364 162.971786,68.343224 141.915863,68.676323 
	C140.854355,68.134804 140.560806,67.591385 140.785706,66.441216 
	C163.683777,65.979210 186.367905,65.959435 209.516861,65.991455 
z"/>
<path fill="#B2B2B2" opacity="1.000000" stroke="none" 
	d="
M140.629410,65.958221 
	C141.006195,66.382774 141.012756,66.766556 141.011276,67.438217 
	C141.038956,70.793808 138.711426,69.950455 136.548248,70.025848 
	C135.811905,69.758675 135.535446,69.605812 134.986755,69.065048 
	C135.964340,66.554993 138.219223,66.452156 140.629410,65.958221 
z"/>
<path fill="#919191" opacity="1.000000" stroke="none" 
	d="
M134.453125,68.639832 
	C134.984497,68.761261 135.254486,68.845367 135.942291,69.002449 
	C136.473892,69.776451 136.211456,70.371986 135.621368,71.190277 
	C134.892960,71.898796 134.311096,72.203865 133.325378,72.131088 
	C132.576599,70.583397 132.124985,69.186775 131.606384,67.421661 
	C131.791626,67.037773 132.043839,67.022377 132.674774,66.987930 
	C133.248474,67.641953 133.337158,68.389046 134.453125,68.639832 
z"/>
<path fill="#F3F3F3" opacity="1.000000" stroke="none" 
	d="
M136.397964,63.954662 
	C136.799301,63.215363 137.204727,63.210545 137.563980,63.733631 
	C137.639374,63.843407 137.637360,64.098305 137.559631,64.205650 
	C137.187119,64.720078 136.781891,64.700836 136.397964,63.954662 
z"/>
<path fill="#EFEFEF" opacity="1.000000" stroke="none" 
	d="
M213.796539,66.613434 
	C213.424377,66.722954 212.863800,66.617218 212.128235,66.269585 
	C212.504868,66.151184 213.056503,66.274681 213.796539,66.613434 
z"/>
<path fill="#161412" opacity="1.000000" stroke="none" 
	d="
M295.591614,71.726723 
	C294.751953,71.847992 294.176697,71.412689 294.027771,70.213188 
	C294.531616,70.424393 295.060364,70.934807 295.591614,71.726723 
z"/>
<path fill="#FCFCFC" opacity="1.000000" stroke="none" 
	d="
M134.745346,71.356506 
	C135.308060,70.518051 135.679825,70.054321 136.205841,69.333008 
	C137.804947,69.042892 139.277054,69.163353 140.790680,68.024963 
	C163.663574,66.818779 186.333130,67.512466 209.458801,67.366249 
	C213.720001,69.598808 214.273773,73.346779 214.722198,77.553635 
	C214.850037,77.901398 214.770645,78.233292 214.784882,78.403336 
	C213.945450,80.191277 212.425110,79.447800 211.230988,79.448265 
	C186.435791,79.458031 161.640457,79.563187 136.401398,79.204109 
	C135.957458,78.982071 135.972809,78.998138 135.979156,78.989861 
	C134.637482,76.736717 134.286942,74.294968 134.745346,71.356506 
z"/>
<path fill="#919191" opacity="1.000000" stroke="none" 
	d="
M136.177292,79.357941 
	C159.772629,78.910751 183.587814,78.841812 207.402954,78.764114 
	C209.567719,78.757057 211.732269,78.693779 214.348022,78.614990 
	C214.830109,78.877441 214.861084,79.181519 214.857178,79.945557 
	C194.789322,80.305466 174.756210,80.226776 154.723450,80.092506 
	C148.614136,80.051567 142.505875,79.857658 136.177292,79.357941 
z"/>
<path fill="#B2B2B2" opacity="1.000000" stroke="none" 
	d="
M134.694122,71.102051 
	C135.307800,73.398499 136.581131,75.647522 136.131104,78.585762 
	C132.828705,77.951904 133.503403,75.072472 133.007095,72.374298 
	C133.502792,71.727463 133.977386,71.474892 134.694122,71.102051 
z"/>
<path fill="#FEFEFE" opacity="1.000000" stroke="none" 
	d="
M128.955124,52.549202 
	C128.996490,52.591438 128.650452,52.448196 128.725479,52.381775 
	C128.800507,52.315353 128.913757,52.506962 128.955124,52.549202 
z"/>
</svg>